<svg width="57" height="67" viewBox="0 0 57 67" fill="none" xmlns="http://www.w3.org/2000/svg">
<path d="M38.7397 19.6619C39.6493 20.9443 40.3521 22.3603 40.8226 23.8585C40.88 24.046 40.9431 24.2314 40.9946 24.4204L41.1262 24.9943C41.1672 25.1861 41.2183 25.3753 41.2501 25.5689L41.3335 26.1522C41.3575 26.347 41.396 26.5395 41.407 26.7359L41.4402 27.3245L41.456 27.6186C41.4617 27.7157 41.467 27.8137 41.4651 27.921C41.4641 28.1316 41.4548 28.3484 41.4312 28.5731C41.3932 28.9772 41.2948 29.3734 41.1393 29.7486C41.0438 29.9667 40.923 30.173 40.7793 30.3632C40.62 30.5654 40.4324 30.7438 40.2222 30.8928L40.2072 30.9034C40.0332 31.0265 39.8258 31.0943 39.6122 31.098C39.3987 31.1016 39.1889 31.0408 39.0106 30.9237C38.8323 30.8065 38.6937 30.6384 38.613 30.4414C38.5323 30.2444 38.5133 30.0278 38.5585 29.82C38.7688 28.8573 39.034 27.9073 39.3527 26.9746C39.8745 25.4144 40.6078 23.9326 41.5322 22.5701C42.4793 21.1773 43.668 19.9637 45.0427 18.9862C46.4484 18.0079 48.0365 17.3191 49.7136 16.9603C51.4359 16.5978 53.2213 16.6578 54.9157 17.1351C55.1645 17.2074 55.3845 17.3549 55.5455 17.5571C55.7065 17.7593 55.8004 18.0062 55.8144 18.2638C55.8283 18.5213 55.7616 18.7768 55.6234 18.9949C55.4852 19.2129 55.2823 19.3828 55.0428 19.481L55.0191 19.4905C54.4366 19.7211 53.8211 19.8589 53.1954 19.8988C52.6204 19.9325 52.0433 19.909 51.4729 19.8287C50.9257 19.7574 50.4076 19.6504 49.9103 19.538C49.4145 19.4242 48.9415 19.3142 48.4295 19.1779C47.6921 18.9925 46.9772 18.7276 46.2974 18.3879C45.9258 18.1962 45.574 17.9686 45.2472 17.7083C44.9137 17.4401 44.6103 17.1368 44.3423 16.8036C43.8463 16.1665 43.4565 15.4542 43.1878 14.6939C42.9388 13.9915 42.7572 13.2672 42.6456 12.5308C42.1857 9.67469 42.4795 6.74915 43.4982 4.04133L43.4997 4.03736C43.5888 3.80138 43.7453 3.59655 43.9499 3.44809C44.1545 3.29962 44.3983 3.21402 44.6512 3.20181C44.9041 3.18961 45.1552 3.25134 45.3734 3.37939C45.5917 3.50745 45.7676 3.69625 45.8795 3.92253C46.2284 4.65632 46.384 5.46634 46.3317 6.27628C46.2877 6.98646 46.1426 7.68674 45.9007 8.35611C45.7915 8.67972 45.6599 8.97641 45.5331 9.2768C45.3946 9.57201 45.2589 9.86902 45.0999 10.1533C44.794 10.7275 44.4451 11.2779 44.0562 11.8C42.5077 13.91 40.379 15.5287 37.9267 16.4609C36.3677 17.0412 34.705 17.295 33.0425 17.2067C32.3898 17.1768 31.747 17.0356 31.1421 16.7893C31.0196 16.7371 30.9054 16.6844 30.7993 16.6299C30.6938 16.571 30.5963 16.5116 30.5067 16.4518C30.3423 16.3466 30.1915 16.2216 30.0578 16.0796C29.7058 15.7087 29.7999 15.4406 30.1912 15.2918C30.5836 15.147 31.2744 15.1095 32.2104 15.0914L32.6591 15.0794L33.114 15.0558C33.4189 15.0343 33.7272 15.0208 34.0357 14.9885C34.6512 14.9306 35.2625 14.8361 35.8666 14.7056C37.0331 14.4448 38.1454 13.9855 39.1547 13.3479C41.1941 12.0633 42.7543 10.1488 43.597 7.89699C43.7961 7.38452 43.9196 6.84596 43.9636 6.29811C44.007 5.84653 43.9209 5.39186 43.7152 4.98688L45.7598 4.88489C45.4881 5.68367 45.2922 6.50611 45.1748 7.34141C44.9537 8.88333 45.0376 10.4939 45.1877 11.9796C45.2894 13.038 45.535 14.0519 46.0023 14.8538C46.2218 15.239 46.5117 15.5799 46.8572 15.8589C47.2355 16.1434 47.6543 16.37 48.0997 16.5314C48.6077 16.7161 49.1262 16.8702 49.6527 16.9929C50.2132 17.13 50.7709 17.2673 51.2984 17.3641C52.359 17.5649 53.3479 17.6008 54.1308 17.2939L54.2233 19.3998L53.8555 19.2991L53.6719 19.2474L53.4843 19.2099L53.1091 19.1337L52.7279 19.0837C51.8605 18.9808 50.9824 19.0122 50.1249 19.1769C49.2516 19.3468 48.4046 19.6302 47.6056 20.0198C46.8018 20.4098 46.0495 20.8974 45.366 21.4713C44.6756 22.0543 44.0512 22.7105 43.5039 23.4285C42.0032 25.3751 41.0198 27.744 40.4926 30.2036L39.0791 29.2921C39.1731 29.2253 39.2475 29.1346 39.2944 29.0295C39.3695 28.8659 39.4188 28.6918 39.4406 28.5133C39.4702 28.2916 39.4823 28.068 39.4767 27.8445L39.4302 27.0944C39.4137 26.8438 39.3832 26.5943 39.3386 26.3471L39.2836 25.9737C39.2678 25.8486 39.2289 25.7278 39.2028 25.6045C39.142 25.3598 39.0934 25.1116 39.0238 24.8687L38.7901 24.146C38.4441 23.1881 37.992 22.2716 37.4419 21.4135C36.8768 20.5595 36.2232 19.767 35.4918 19.0489C34.5666 18.1632 33.5447 17.3833 32.4453 16.7239C32.3793 16.6825 32.3147 16.6384 32.2481 16.5988L32.0444 16.4894L31.6399 16.2664C31.3755 16.1048 31.0959 15.9892 30.8237 15.8539L30.4155 15.6523C30.2815 15.5918 30.1483 15.5363 30.0135 15.4905C29.7484 15.3843 29.4575 15.3597 29.1784 15.4196C29.1096 15.4396 29.0465 15.466 28.9968 15.4837C28.9958 15.484 28.9949 15.4846 28.994 15.4853C28.9932 15.4861 28.9926 15.487 28.9921 15.4879L28.9854 15.5029C28.9628 15.5573 28.9618 15.6182 28.9825 15.6734C29.0012 15.724 29.03 15.7702 29.0672 15.8093C29.1346 15.8797 29.222 15.9276 29.3177 15.9467C29.3628 15.9565 29.4096 15.9567 29.4548 15.9472C29.4949 15.9428 29.5346 15.9355 29.5737 15.9253C29.6396 15.9064 29.6875 15.895 29.7126 15.9141C29.7369 15.932 29.7405 15.9827 29.6958 16.0651C29.664 16.1152 29.6234 16.1591 29.5761 16.1949C29.5179 16.2538 29.4449 16.2962 29.3647 16.3176C29.1717 16.3778 28.9634 16.3678 28.777 16.2893C28.6392 16.2312 28.5188 16.1386 28.4275 16.0205C28.362 15.9348 28.3127 15.8381 28.2819 15.7349C28.247 15.6127 28.237 15.4848 28.2525 15.3588C28.2639 15.2631 28.3028 15.1727 28.3645 15.0984L28.5192 14.9116C28.6003 14.8133 28.6932 14.7253 28.7957 14.6494C28.853 14.6072 28.9132 14.5692 28.976 14.5357C29.0424 14.5052 29.1109 14.4793 29.1809 14.4582C29.5115 14.3627 29.8575 14.3314 30.2001 14.366C30.4681 14.3887 30.7338 14.4337 30.9943 14.5003L31.7115 14.6739L31.8918 14.7199L32.0672 14.7794L32.4192 14.9006C33.368 15.2294 34.2744 15.6688 35.1196 16.2097C36.5126 17.1401 37.7258 18.3131 38.7006 19.6723C38.7133 19.6689 38.725 19.6658 38.7397 19.6619Z" fill="white"/>
<path d="M14.0423 43.6535L14.7732 44.1416L15.4712 44.6764L15.6447 44.811L15.81 44.9563L16.1399 45.2475C16.249 45.3452 16.3606 45.4403 16.4674 45.5406L16.7768 45.854C17.1909 46.2702 17.5812 46.7091 17.946 47.1688L18.4664 47.878C18.6364 48.1164 18.7827 48.3701 18.9408 48.6156C19.5431 49.612 20.0367 50.6696 20.413 51.7704C20.7744 52.8687 21.0242 54.0003 21.1587 55.1481C21.1858 55.4526 21.2244 55.7561 21.239 56.0614L21.2669 56.9784L21.2379 57.8957C21.2292 58.2014 21.1844 58.5055 21.159 58.8102C21.0208 60.0282 20.7484 61.2274 20.3467 62.3859L20.04 63.1992C19.9519 63.4329 19.7819 63.6269 19.5613 63.7456C19.3408 63.8642 19.0846 63.8995 18.8398 63.845C18.5951 63.7905 18.3783 63.6498 18.2294 63.4488C18.0805 63.2479 18.0095 63.0001 18.0294 62.7513L18.0336 62.7031C18.2523 60.0165 18.4696 57.2455 19.2123 54.5044C19.5806 53.1164 20.1083 51.7754 20.785 50.5079C21.4768 49.2049 22.3768 48.0226 23.4496 47.0071C24.5468 46.0043 25.8064 45.1931 27.1751 44.608C28.5028 44.0482 29.886 43.6286 31.3018 43.356C31.9982 43.2173 32.6941 43.1068 33.3909 43.0157C34.0893 42.9264 34.803 42.8557 35.5359 42.8352C36.2855 42.8076 37.0363 42.8458 37.7793 42.9493C38.5588 43.0584 39.321 43.2665 40.0474 43.5685C40.2868 43.6681 40.4895 43.8387 40.6279 44.0572C40.7663 44.2757 40.8337 44.5314 40.8207 44.7893C40.8078 45.0472 40.7152 45.2948 40.5557 45.4983C40.3961 45.7018 40.1773 45.8512 39.9292 45.9262L39.9014 45.9345C38.6918 46.2751 37.4317 46.4026 36.1778 46.3111C34.8474 46.2121 33.5279 46.0001 32.2336 45.6773C30.9475 45.3929 29.6811 45.0266 28.442 44.5807C27.8019 44.3474 27.1766 44.0755 26.5697 43.7663C25.9443 43.4531 25.3457 43.0892 24.7801 42.6782C24.1998 42.2583 23.6617 41.7834 23.1733 41.2603C22.6879 40.7346 22.2562 40.1622 21.8847 39.5514C21.1798 38.3718 20.6323 37.1059 20.2561 35.7857C19.5119 33.2475 19.1378 30.6164 19.1453 27.9728C19.1478 27.6433 19.1537 27.3137 19.1689 26.9844C19.1747 26.8197 19.1826 26.6551 19.1938 26.4907C19.2045 26.3248 19.2109 26.171 19.2305 25.9697C19.2661 25.5272 19.3672 25.0924 19.5307 24.6794C19.6419 24.4068 19.7956 24.1533 19.9861 23.9284C20.2135 23.6627 20.4968 23.45 20.8161 23.3056L20.8296 23.2996C20.9857 23.2305 21.154 23.1926 21.3248 23.1882C21.4957 23.1838 21.6657 23.213 21.8253 23.274C21.9849 23.335 22.1308 23.4268 22.2549 23.5439C22.3789 23.6611 22.4785 23.8015 22.5481 23.9569C22.6226 24.1253 22.6611 24.3074 22.6608 24.4914C22.6221 29.7564 20.8453 34.8614 17.6043 39.0195C16.8499 39.9855 15.9778 40.8545 15.0082 41.6064C14.5122 41.9854 13.9863 42.3239 13.4356 42.6187C12.8825 42.9149 12.303 43.1593 11.7045 43.3488C10.7541 43.6633 9.74453 43.76 8.75108 43.6317C8.11362 43.5566 7.50353 43.3301 6.97228 42.971C6.40417 42.5433 6.54384 42.2908 7.07508 42.2106C7.34631 42.1558 7.7205 42.1384 8.1929 42.0875C8.76356 42.0284 9.32973 41.9324 9.88784 41.8002C10.7454 41.5864 11.567 41.2493 12.3268 40.7996C13.1178 40.3265 13.8508 39.7635 14.5113 39.122C15.4658 38.1832 16.3048 37.1346 17.0105 35.9984C17.7389 34.8594 18.3532 33.6518 18.8447 32.3932C19.8334 29.8759 20.3307 27.1936 20.3099 24.4901L21.7861 25.4389C21.7864 25.4398 21.7884 25.4432 21.7865 25.4393L21.7813 25.4306C21.7821 25.4324 21.7832 25.4341 21.7843 25.4357C21.7872 25.44 21.79 25.4431 21.7884 25.4409L21.7882 25.444C21.7784 25.4559 21.7699 25.4687 21.7629 25.4824C21.7152 25.5736 21.6812 25.6713 21.662 25.7724C21.6287 25.9307 21.6076 26.0913 21.599 26.2528L21.5726 26.8651C21.5482 27.6986 21.57 28.5325 21.6246 29.3632C21.7409 31.0226 22.0264 32.6661 22.4769 34.2682C22.7854 35.4051 23.2189 36.5048 23.7695 37.5473C24.0329 38.0378 24.3348 38.5068 24.6722 38.9501C24.8346 39.1635 25.0077 39.3686 25.1908 39.5647C25.2834 39.6607 25.3688 39.7625 25.4643 39.8554L25.7508 40.1332C26.614 40.909 27.601 41.5362 28.671 41.9891C29.8025 42.4742 30.9728 42.864 32.1696 43.1545C33.3663 43.4771 34.584 43.7165 35.814 43.8708C36.956 44.0184 38.1158 43.9451 39.2297 43.6551L39.1005 45.7477C38.057 45.2981 36.8502 45.1411 35.5957 45.1657C34.9686 45.1741 34.3284 45.2258 33.68 45.2968C33.0307 45.3696 32.3842 45.4583 31.747 45.5689C30.383 45.7893 29.0527 46.1804 27.7875 46.733C26.5579 47.2678 25.4438 48.0339 24.5061 48.9892C23.5739 49.9727 22.8092 51.1011 22.2421 52.3299C21.6583 53.5879 21.2152 54.9061 20.9208 56.2608C20.4379 58.3928 20.2255 60.6182 20.0151 62.8737L18.2082 62.427C19.716 58.9457 19.6228 54.7856 18.0677 51.2829C17.965 51.0666 17.8765 50.8427 17.7627 50.6319L17.4207 49.9996C17.304 49.7904 17.1668 49.5939 17.0411 49.3899C16.9756 49.2897 16.916 49.1852 16.8457 49.0885L16.6318 48.8003C16.3483 48.4142 16.0454 48.0425 15.7244 47.6867C15.3848 47.3476 15.0576 46.9946 14.6848 46.6884C14.5073 46.5254 14.3217 46.3714 14.1285 46.2272C13.9352 46.083 13.7474 45.931 13.5498 45.7923L12.9446 45.3928C12.7446 45.2565 12.5265 45.1491 12.3185 45.0254C11.4732 44.5479 10.5803 44.1592 9.6543 43.8656C7.44837 43.159 5.11743 42.9259 2.81511 43.1815L2.86353 42.2838C4.188 42.8041 5.60138 43.0628 7.02476 43.0453C7.83273 43.0347 8.24154 43.046 8.22434 43.2175C8.21289 43.2929 8.09634 43.4159 7.85595 43.5472C7.71011 43.6269 7.55864 43.6958 7.40273 43.7535C7.31151 43.7891 7.21228 43.8244 7.10442 43.8561C7.05054 43.8719 6.99491 43.8906 6.93674 43.9042C6.87822 43.9161 6.81781 43.9277 6.75549 43.9388C5.30871 44.1953 3.8233 44.1399 2.39941 43.7763C2.16381 43.7153 1.95542 43.5776 1.80742 43.3852C1.65943 43.1927 1.58034 42.9564 1.58275 42.7141C1.58517 42.4718 1.66895 42.2373 1.82076 42.048C1.97257 41.8587 2.18366 41.7254 2.42043 41.6694L2.51434 41.6476C3.98533 41.3078 5.50053 41.1974 7.00587 41.3202C8.24239 41.4162 9.4612 41.6721 10.6315 42.0816C11.8103 42.4887 12.9412 43.0224 14.004 43.6733C14.0164 43.6662 14.0281 43.6598 14.0423 43.6535Z" fill="white"/>
</svg>
