<svg width="20" height="20" viewBox="0 0 20 20" fill="none" xmlns="http://www.w3.org/2000/svg">
<path d="M1.23154 15.1245C1.47099 17.181 3.20732 18.8137 5.35442 18.9133C6.83847 18.9821 8.35448 19.0179 9.99983 19.0179C11.6452 19.0179 13.1612 18.9821 14.6453 18.9133C16.7924 18.8137 18.5287 17.181 18.7681 15.1245C19.1007 12.2683 19.1007 9.83595 18.7681 6.97971C18.5287 4.92327 16.7924 3.29049 14.6453 3.19094C13.1612 3.12213 11.6452 3.08636 9.99983 3.08636C8.35448 3.08636 6.83847 3.12213 5.35442 3.19094C3.20732 3.29049 1.47099 4.92327 1.23154 6.97971C0.898973 9.83595 0.898975 12.2683 1.23154 15.1245Z" stroke="#3A5772" stroke-width="1.8" stroke-linecap="round" stroke-linejoin="round"/>
<path d="M6.03491 0.982143V4.95" stroke="#3A5772" stroke-width="1.8" stroke-linecap="round" stroke-linejoin="round"/>
<path d="M13.965 0.982143V4.95" stroke="#3A5772" stroke-width="1.8" stroke-linecap="round" stroke-linejoin="round"/>
<path d="M6.03637 10.049C5.80552 10.049 5.67566 9.91911 5.67566 9.68826C5.67566 9.4574 5.80552 9.32754 6.03637 9.32754" stroke="#3A5772" stroke-width="1.8" stroke-linecap="round" stroke-linejoin="round"/>
<path d="M6.03918 10.049C6.27004 10.049 6.3999 9.91911 6.3999 9.68826C6.3999 9.4574 6.27004 9.32754 6.03918 9.32754" stroke="#3A5772" stroke-width="1.8" stroke-linecap="round" stroke-linejoin="round"/>
<path d="M6.03637 14.3775C5.80552 14.3775 5.67566 14.2477 5.67566 14.0168C5.67566 13.786 5.80552 13.6561 6.03637 13.6561" stroke="#3A5772" stroke-width="1.8" stroke-linecap="round" stroke-linejoin="round"/>
<path d="M6.03918 14.3775C6.27004 14.3775 6.3999 14.2477 6.3999 14.0168C6.3999 13.786 6.27004 13.6561 6.03918 13.6561" stroke="#3A5772" stroke-width="1.8" stroke-linecap="round" stroke-linejoin="round"/>
<path d="M9.99719 10.049C9.76633 10.049 9.63647 9.91911 9.63647 9.68826C9.63647 9.4574 9.76633 9.32754 9.99719 9.32754" stroke="#3A5772" stroke-width="1.8" stroke-linecap="round" stroke-linejoin="round"/>
<path d="M10 10.049C10.2309 10.049 10.3607 9.91911 10.3607 9.68826C10.3607 9.4574 10.2309 9.32754 10 9.32754" stroke="#3A5772" stroke-width="1.8" stroke-linecap="round" stroke-linejoin="round"/>
<path d="M9.99719 14.3775C9.76633 14.3775 9.63647 14.2477 9.63647 14.0168C9.63647 13.786 9.76633 13.6561 9.99719 13.6561" stroke="#3A5772" stroke-width="1.8" stroke-linecap="round" stroke-linejoin="round"/>
<path d="M10 14.3775C10.2309 14.3775 10.3607 14.2477 10.3607 14.0168C10.3607 13.786 10.2309 13.6561 10 13.6561" stroke="#3A5772" stroke-width="1.8" stroke-linecap="round" stroke-linejoin="round"/>
<path d="M13.9608 10.049C13.73 10.049 13.6001 9.91911 13.6001 9.68826C13.6001 9.4574 13.73 9.32754 13.9608 9.32754" stroke="#3A5772" stroke-width="1.8" stroke-linecap="round" stroke-linejoin="round"/>
<path d="M13.9636 10.049C14.1945 10.049 14.3243 9.91911 14.3243 9.68826C14.3243 9.4574 14.1945 9.32754 13.9636 9.32754" stroke="#3A5772" stroke-width="1.8" stroke-linecap="round" stroke-linejoin="round"/>
</svg>
