<svg width="22" height="22" viewBox="0 0 22 22" fill="none" xmlns="http://www.w3.org/2000/svg">
<path d="M16.0433 9.69207C12.1835 9.35759 8.37514 9.36042 4.51471 9.70055C5.24307 6.26384 6.86737 4.07 10.2375 4.07H11.0156C13.1245 4.07 14.9629 5.47255 15.4747 7.47206L16.0433 9.69207Z" stroke="black" stroke-width="2.2"/>
<path d="M4.51355 9.70536C4.51355 9.70536 1.99103 9.70536 1.99103 12.8618C1.99103 14.6578 2.61388 16.045 4.15333 16.045L4.47649 16.0443C4.47282 15.9813 4.47098 15.9169 4.47098 15.851C4.47098 14.5204 5.21942 13.772 6.54998 13.772C7.88054 13.772 8.62898 14.5204 8.62898 15.851C8.62898 15.9166 8.62714 15.9808 8.6236 16.0435L13.1806 16.0436C13.1769 15.9808 13.1752 15.9168 13.1752 15.851C13.1752 14.5204 13.9236 13.772 15.2541 13.772C16.5846 13.772 17.3331 14.5204 17.3331 15.851C17.3331 15.9169 17.3314 15.9811 17.3277 16.044L17.847 16.045C18.933 16.045 20.009 15.1344 20.009 13.5662C20.009 11.0747 19.2521 10.6696 16.0465 9.70536L15.4747 7.47206C14.9627 5.47255 13.1244 4.07 11.0154 4.07H10.2374C6.86565 4.07 5.24148 6.26582 4.51355 9.70536Z" stroke="black" stroke-width="2.2" stroke-linecap="round" stroke-linejoin="round"/>
<path d="M6.54995 17.93C7.88051 17.93 8.62895 17.1816 8.62895 15.851C8.62895 14.5204 7.88051 13.772 6.54995 13.772C5.21939 13.772 4.47095 14.5204 4.47095 15.851C4.47095 17.1816 5.21939 17.93 6.54995 17.93Z" stroke="black" stroke-width="2.2" stroke-linecap="round" stroke-linejoin="round"/>
<path d="M15.254 17.93C16.5846 17.93 17.333 17.1816 17.333 15.851C17.333 14.5204 16.5846 13.772 15.254 13.772C13.9236 13.772 13.1752 14.5204 13.1752 15.851C13.1752 17.1816 13.9236 17.93 15.254 17.93Z" stroke="black" stroke-width="2.2" stroke-linecap="round" stroke-linejoin="round"/>
</svg>
