<svg width="20" height="20" viewBox="0 0 20 20" fill="none" xmlns="http://www.w3.org/2000/svg">
<path d="M3.97306 15.0173C2.70933 14.8998 1.64723 13.9754 1.47224 12.7184C1.272 11.2799 1.16071 9.80112 1.16071 8.27888C1.16071 6.70289 1.27204 5.15215 1.48643 3.66745C1.65599 2.49321 2.61445 1.60688 3.79439 1.48295C5.78771 1.27358 7.87027 1.16071 9.99999 1.16071C12.1231 1.16071 14.1689 1.28038 16.164 1.48667C17.364 1.61075 18.3386 2.5155 18.509 3.70984C18.7192 5.18306 18.8393 6.71652 18.8393 8.27888C18.8393 9.82888 18.708 11.3358 18.5014 12.7989C18.3296 14.016 17.3394 14.9449 16.1165 15.0692C14.1407 15.2699 12.1037 15.3971 9.99999 15.3971C9.94963 15.3971 9.89931 15.3969 9.849 15.3968C8.36559 17.1031 7.22826 17.9464 5.24038 18.8393V15.1347C4.91807 15.1056 4.5976 15.0756 4.27911 15.0459C4.17688 15.0364 4.07487 15.0268 3.97306 15.0173Z" stroke="black" stroke-width="2.2" stroke-linecap="round" stroke-linejoin="round"/>
<path d="M10.0008 8.90869C10.0008 8.43322 10.3875 8.14158 11.0698 7.68572C11.7026 7.26287 12.0364 6.71437 11.8879 5.9679C11.7394 5.22144 11.1226 4.60465 10.3762 4.45617C9.20443 4.22309 8.07678 5.14853 8.07678 6.34323" stroke="black" stroke-width="2.2" stroke-linecap="round" stroke-linejoin="round"/>
<path d="M10 12.2008V11.8473" stroke="black" stroke-width="2.2" stroke-linecap="round" stroke-linejoin="round"/>
</svg>
