<svg width="22" height="22" viewBox="0 0 22 22" fill="none" xmlns="http://www.w3.org/2000/svg">
<g clip-path="url(#clip0_4_919)">
<path d="M7.54249 2.41926C6.43425 1.48829 4.78308 1.62211 3.94214 2.80123C3.71755 3.11618 3.45139 3.49183 2.99174 4.06821C1.41043 6.05098 1.41043 8.92199 3.00051 10.8977C4.17423 12.3563 5.40508 13.828 6.78085 15.207C8.15668 16.5861 9.62494 17.8198 11.08 18.9964C13.0511 20.5903 15.9154 20.5903 17.8935 19.0051C18.507 18.5135 18.8897 18.2457 19.2146 18.013C20.351 17.1997 20.5102 15.6042 19.6229 14.5234C18.9217 13.6695 18.141 12.8547 17.3879 12.0594C16.7879 11.4259 15.7859 11.3845 15.1049 11.9296C14.9218 12.0762 14.6944 12.2695 14.2333 12.7027C11.9706 11.355 10.5993 9.96368 9.27929 7.73702C9.7168 7.26924 9.90975 7.04064 10.0573 6.85528C10.6001 6.17326 10.5599 5.17152 9.92408 4.57558C9.1492 3.84927 8.36063 3.10653 7.54249 2.41926Z" stroke="black" stroke-width="2.2" stroke-linecap="round" stroke-linejoin="round"/>
</g>
<defs>
<clipPath id="clip0_4_919">
<rect width="22" height="22" fill="white" transform="matrix(-1 0 0 1 22 0)"/>
</clipPath>
</defs>
</svg>
