<svg width="22" height="22" viewBox="0 0 22 22" fill="none" xmlns="http://www.w3.org/2000/svg">
<path d="M1.86335 18.31C1.55428 19.4307 2.56923 20.4456 3.68984 20.1366C6.96308 19.2338 12.7233 17.58 16.4926 16.1292C15.1432 12.9073 9.05277 6.82707 5.86214 5.5294L1.86335 18.31Z" stroke="black" stroke-width="2.2" stroke-linecap="round" stroke-linejoin="round"/>
<path d="M2.58093 16.0166C3.6858 17.015 4.91005 16.9674 6.00355 15.8739C7.14674 14.7308 7.14674 13.4447 6.00355 12.3015C5.36627 11.6642 4.68458 11.3822 4.008 11.4554L2.58093 16.0166Z" stroke="black" stroke-width="2.2" stroke-linecap="round" stroke-linejoin="round"/>
<path d="M12.779 11.0474C14.4834 12.8663 15.9181 14.7569 16.4929 16.1292C15.391 16.5532 14.1191 16.9946 12.7888 17.4296C12.3879 17.2425 11.9931 16.9577 11.6104 16.5751C10.1135 15.0782 10.1135 13.3942 11.6104 11.8973C11.9899 11.5178 12.3815 11.2345 12.779 11.0474Z" stroke="black" stroke-width="2.2" stroke-linecap="round" stroke-linejoin="round"/>
<path d="M16.4928 16.1292C18.187 15.4772 19.4791 14.8662 19.9623 14.3829C22.02 12.3254 9.6746 -0.0200223 7.61703 2.03754C7.13165 2.52293 6.51742 3.8242 5.86218 5.52939C9.05281 6.82705 15.1433 12.9073 16.4928 16.1292Z" stroke="black" stroke-width="2.2" stroke-linecap="round" stroke-linejoin="round"/>
</svg>
